<svg width="21" height="20" viewBox="0 0 21 20" fill="none" xmlns="http://www.w3.org/2000/svg">
<g clip-path="url(#clip0_20_336)">
<path d="M10.5 19.1667C15.5625 19.1667 19.6666 15.0625 19.6666 10C19.6666 4.93754 15.5625 0.833374 10.5 0.833374M10.5 19.1667C5.43748 19.1667 1.33331 15.0625 1.33331 10C1.33331 4.93754 5.43748 0.833374 10.5 0.833374M10.5 19.1667C13 19.1667 13.8333 15 13.8333 10C13.8333 5.00004 13 0.833374 10.5 0.833374M10.5 19.1667C7.99998 19.1667 7.16665 15 7.16665 10C7.16665 5.00004 7.99998 0.833374 10.5 0.833374M2.16665 13.3334H18.8333M2.16665 6.66671H18.8333" stroke="#F47732" stroke-width="2"/>
</g>
<defs>
<clipPath id="clip0_20_336">
<rect width="20" height="20" fill="white" transform="translate(0.5)"/>
</clipPath>
</defs>
</svg>
